<svg viewBox="0 0 600 400" xmlns="http://www.w3.org/2000/svg">
<g transform="translate(50, 360)">
<g>
<rect fill="#222222" height="10" width="10" x="226.4814814814815" y="-5.011330311916822"/>
<rect fill="#222222" height="10" width="10" x="231.11111111111111" y="-5.011330311916822"/>
<rect fill="#222222" height="10" width="10" x="96.85185185185185" y="-9.169554785390563"/>
<rect fill="#222222" height="10" width="10" x="129.25925925925927" y="-8.410423886963477"/>
<rect fill="#222222" height="10" width="10" x="106.11111111111111" y="-10.948413756331645"/>
<rect fill="#222222" height="10" width="10" x="78.33333333333333" y="-5.532524660090642"/>
<rect fill="#222222" height="10" width="10" x="73.70370370370371" y="-5.1812849906691545"/>
<rect fill="#222222" height="10" width="10" x="92.22222222222223" y="-8.217808584377499"/>
<rect fill="#222222" height="10" width="10" x="203.33333333333334" y="-5.022660623833644"/>
<rect fill="#222222" height="10" width="10" x="170.92592592592592" y="-5.1812849906691545"/>
<rect fill="#222222" height="10" width="10" x="87.5925925925926" y="-6.892162090109304"/>
<rect fill="#222222" height="10" width="10" x="207.96296296296296" y="-5.033990935750467"/>
<rect fill="#222222" height="10" width="10" x="194.07407407407408" y="-5.011330311916822"/>
<rect fill="#222222" height="10" width="10" x="198.7037037037037" y="-5.011330311916822"/>
<rect fill="#222222" height="10" width="10" x="82.96296296296296" y="-6.2916555585177285"/>
<rect fill="#222222" height="10" width="10" x="133.88888888888889" y="-7.787256731538257"/>
<rect fill="#222222" height="10" width="10" x="175.55555555555554" y="-5.169954678752333"/>
<rect fill="#222222" height="10" width="10" x="166.2962962962963" y="-5.26059717408691"/>
<rect fill="#222222" height="10" width="10" x="161.66666666666666" y="-5.3965609170887765"/>
<rect fill="#222222" height="10" width="10" x="69.07407407407408" y="-5.011330311916822"/>
<rect fill="#222222" height="10" width="10" x="120" y="-10.211943481738203"/>
<rect fill="#222222" height="10" width="10" x="152.40740740740742" y="-5.759130898427086"/>
<rect fill="#222222" height="10" width="10" x="147.77777777777777" y="-5.9744068248467075"/>
<rect fill="#222222" height="10" width="10" x="64.44444444444444" y="-5.011330311916822"/>
<rect fill="#222222" height="10" width="10" x="110.74074074074075" y="-10.891762196747534"/>
<rect fill="#222222" height="10" width="10" x="143.14814814814815" y="-6.416288989602773"/>
<rect fill="#222222" height="10" width="10" x="189.44444444444446" y="-5.0793121834177555"/>
<rect fill="#222222" height="10" width="10" x="138.5185185185185" y="-7.0847773926952815"/>
<rect fill="#222222" height="10" width="10" x="115.37037037037037" y="-10.438549720074647"/>
<rect fill="#222222" height="10" width="10" x="180.1851851851852" y="-5.1019728072514"/>
<rect fill="#222222" height="10" width="10" x="221.85185185185185" y="-5.011330311916822"/>
<rect fill="#222222" height="10" width="10" x="101.48148148148148" y="-10.30258597707278"/>
<rect fill="#222222" height="10" width="10" x="124.62962962962962" y="-9.135563849640096"/>
<rect fill="#222222" height="10" width="10" x="157.03703703703704" y="-5.611836843508398"/>
<rect fill="#222222" height="10" width="10" x="184.8148148148148" y="-5.067981871500933"/>
</g>
<g>
<circle cx="194.44444444444446" cy="-1.3029858704345507" fill="#0000FF" r="5"/>
<circle cx="407.4074074074074" cy="-100.18261796854172" fill="#0000FF" r="5"/>
<circle cx="351.85185185185185" cy="-340" fill="#0000FF" r="5"/>
<circle cx="356.48148148148147" cy="-337.4960010663823" fill="#0000FF" r="5"/>
<circle cx="226.85185185185185" cy="-6.832178085843775" fill="#0000FF" r="5"/>
<circle cx="217.59259259259258" cy="-4.237536656891495" fill="#0000FF" r="5"/>
<circle cx="291.6666666666667" cy="-126.32164756065049" fill="#0000FF" r="5"/>
<circle cx="370.3703703703704" cy="-292.87723273793654" fill="#0000FF" r="5"/>
<circle cx="500" cy="-0.022660623833644363" fill="#0000FF" r="5"/>
<circle cx="449.0740740740741" cy="-6.514929352172754" fill="#0000FF" r="5"/>
<circle cx="212.96296296296296" cy="-2.9118901626233002" fill="#0000FF" r="5"/>
<circle cx="166.66666666666666" cy="-0.44188216475606507" fill="#0000FF" r="5"/>
<circle cx="398.14814814814815" cy="-145.22060783790988" fill="#0000FF" r="5"/>
<circle cx="129.62962962962962" cy="-0.07931218341775527" fill="#0000FF" r="5"/>
<circle cx="444.44444444444446" cy="-10.34457478005865" fill="#0000FF" r="5"/>
<circle cx="245.37037037037038" cy="-17.901892828579047" fill="#0000FF" r="5"/>
<circle cx="347.22222222222223" cy="-336.6462276726206" fill="#0000FF" r="5"/>
<circle cx="171.2962962962963" cy="-0.46454278858970943" fill="#0000FF" r="5"/>
<circle cx="328.7037037037037" cy="-298.4064249533458" fill="#0000FF" r="5"/>
<circle cx="467.5925925925926" cy="-1.0083977605971741" fill="#0000FF" r="5"/>
<circle cx="476.85185185185185" cy="-0.4532124766728872" fill="#0000FF" r="5"/>
<circle cx="388.8888888888889" cy="-199.61743535057317" fill="#0000FF" r="5"/>
<circle cx="453.7037037037037" cy="-4.452812583311117" fill="#0000FF" r="5"/>
<circle cx="152.77777777777777" cy="-0.21527592641962143" fill="#0000FF" r="5"/>
<circle cx="125" cy="-0.16995467875233272" fill="#0000FF" r="5"/>
<circle cx="439.81481481481484" cy="-13.992935217275393" fill="#0000FF" r="5"/>
<circle cx="27.77777777777778" cy="-0.011330311916822182" fill="#0000FF" r="5"/>
<circle cx="263.8888888888889" cy="-43.85963743001866" fill="#0000FF" r="5"/>
<circle cx="-13.88888888888889" cy="-0.011330311916822182" fill="#0000FF" r="5"/>
<circle cx="342.5925925925926" cy="-330.59584110903756" fill="#0000FF" r="5"/>
<circle cx="472.22222222222223" cy="-0.6571580911756865" fill="#0000FF" r="5"/>
<circle cx="106.48148148148148" cy="-0.07931218341775527" fill="#0000FF" r="5"/>
<circle cx="74.07407407407408" cy="-0.022660623833644363" fill="#0000FF" r="5"/>
<circle cx="101.85185185185185" cy="-0.03399093575046654" fill="#0000FF" r="5"/>
<circle cx="268.51851851851853" cy="-53.592375366568916" fill="#0000FF" r="5"/>
<circle cx="430.55555555555554" cy="-28.21247667288723" fill="#0000FF" r="5"/>
<circle cx="120.37037037037037" cy="-0.0566515595841109" fill="#0000FF" r="5"/>
<circle cx="458.3333333333333" cy="-2.775926419621434" fill="#0000FF" r="5"/>
<circle cx="240.74074074074073" cy="-14.287523327112769" fill="#0000FF" r="5"/>
<circle cx="296.2962962962963" cy="-145.75313249800053" fill="#0000FF" r="5"/>
<circle cx="365.74074074074076" cy="-311.87816582244733" fill="#0000FF" r="5"/>
<circle cx="416.6666666666667" cy="-64.8207144761397" fill="#0000FF" r="5"/>
<circle cx="185.1851851851852" cy="-0.8837643295121301" fill="#0000FF" r="5"/>
<circle cx="180.55555555555554" cy="-0.8271127699280192" fill="#0000FF" r="5"/>
<circle cx="199.07407407407408" cy="-1.7448680351906158" fill="#0000FF" r="5"/>
<circle cx="157.40740740740742" cy="-0.21527592641962143" fill="#0000FF" r="5"/>
<circle cx="402.77777777777777" cy="-124.16888829645428" fill="#0000FF" r="5"/>
<circle cx="324.0740740740741" cy="-278.3291122367369" fill="#0000FF" r="5"/>
<circle cx="78.70370370370371" cy="-0.022660623833644363" fill="#0000FF" r="5"/>
<circle cx="393.51851851851853" cy="-171.71087709944015" fill="#0000FF" r="5"/>
<circle cx="259.25925925925924" cy="-35.42988536390296" fill="#0000FF" r="5"/>
<circle cx="435.18518518518516" cy="-20.292588643028527" fill="#0000FF" r="5"/>
<circle cx="425.9259259259259" cy="-38.693015195947744" fill="#0000FF" r="5"/>
<circle cx="379.6296296296296" cy="-245.31258331111704" fill="#0000FF" r="5"/>
<circle cx="333.3333333333333" cy="-313.3850973073847" fill="#0000FF" r="5"/>
<circle cx="486.1111111111111" cy="-0.13596374300186617" fill="#0000FF" r="5"/>
<circle cx="189.8148148148148" cy="-1.0310583844308185" fill="#0000FF" r="5"/>
<circle cx="319.44444444444446" cy="-258.0025326579579" fill="#0000FF" r="5"/>
<circle cx="277.77777777777777" cy="-77.79392162090109" fill="#0000FF" r="5"/>
<circle cx="310.18518518518516" cy="-212.94188216475607" fill="#0000FF" r="5"/>
<circle cx="337.962962962963" cy="-330.39189549453477" fill="#0000FF" r="5"/>
<circle cx="361.1111111111111" cy="-322.23407091442283" fill="#0000FF" r="5"/>
<circle cx="236.11111111111111" cy="-11.352972540655825" fill="#0000FF" r="5"/>
<circle cx="384.25925925925924" cy="-222.4140229272194" fill="#0000FF" r="5"/>
<circle cx="69.44444444444444" cy="-0.011330311916822182" fill="#0000FF" r="5"/>
<circle cx="138.88888888888889" cy="-0.19261530258597706" fill="#0000FF" r="5"/>
<circle cx="115.74074074074075" cy="-0.03399093575046654" fill="#0000FF" r="5"/>
<circle cx="495.3703703703704" cy="-0.0566515595841109" fill="#0000FF" r="5"/>
<circle cx="412.037037037037" cy="-80.27525993068515" fill="#0000FF" r="5"/>
<circle cx="97.22222222222223" cy="-0.011330311916822182" fill="#0000FF" r="5"/>
<circle cx="287.037037037037" cy="-107.25273260463877" fill="#0000FF" r="5"/>
<circle cx="314.81481481481484" cy="-239.1262330045321" fill="#0000FF" r="5"/>
<circle cx="162.03703703703704" cy="-0.44188216475606507" fill="#0000FF" r="5"/>
<circle cx="134.25925925925927" cy="-0.12463343108504399" fill="#0000FF" r="5"/>
<circle cx="208.33333333333334" cy="-2.4020261263663025" fill="#0000FF" r="5"/>
<circle cx="87.96296296296296" cy="-0.011330311916822182" fill="#0000FF" r="5"/>
<circle cx="175.92592592592592" cy="-0.6118368435083977" fill="#0000FF" r="5"/>
<circle cx="490.74074074074076" cy="-0.022660623833644363" fill="#0000FF" r="5"/>
<circle cx="143.5185185185185" cy="-0.13596374300186617" fill="#0000FF" r="5"/>
<circle cx="300.9259259259259" cy="-167.98320447880565" fill="#0000FF" r="5"/>
<circle cx="222.22222222222223" cy="-5.835110637163423" fill="#0000FF" r="5"/>
<circle cx="231.4814814814815" cy="-8.667688616368968" fill="#0000FF" r="5"/>
<circle cx="481.48148148148147" cy="-0.2266062383364436" fill="#0000FF" r="5"/>
<circle cx="462.962962962963" cy="-1.880831778192482" fill="#0000FF" r="5"/>
<circle cx="111.11111111111111" cy="-0.0566515595841109" fill="#0000FF" r="5"/>
<circle cx="203.7037037037037" cy="-2.0961077046121033" fill="#0000FF" r="5"/>
<circle cx="254.62962962962962" cy="-28.94894694748067" fill="#0000FF" r="5"/>
<circle cx="273.14814814814815" cy="-65.17195414556119" fill="#0000FF" r="5"/>
<circle cx="305.55555555555554" cy="-191.72020794454812" fill="#0000FF" r="5"/>
<circle cx="282.4074074074074" cy="-92.37603305785125" fill="#0000FF" r="5"/>
<circle cx="250" cy="-23.193148493735006" fill="#0000FF" r="5"/>
<circle cx="375" cy="-271.3949613436417" fill="#0000FF" r="5"/>
<circle cx="421.2962962962963" cy="-48.856304985337246" fill="#0000FF" r="5"/>
<circle cx="148.14814814814815" cy="-0.20394561450279924" fill="#0000FF" r="5"/>
</g>
<g>
<circle cx="171.2962962962963" cy="-0.011330311916822182" fill="#FF0000" r="5"/>
<circle cx="250" cy="-0.011330311916822182" fill="#FF0000" r="5"/>
<circle cx="217.59259259259258" cy="-0.011330311916822182" fill="#FF0000" r="5"/>
<circle cx="240.74074074074073" cy="-0.011330311916822182" fill="#FF0000" r="5"/>
<circle cx="74.07407407407408" cy="-0.011330311916822182" fill="#FF0000" r="5"/>
<circle cx="143.5185185185185" cy="-0.011330311916822182" fill="#FF0000" r="5"/>
<circle cx="263.8888888888889" cy="-0.011330311916822182" fill="#FF0000" r="5"/>
<circle cx="157.40740740740742" cy="-0.011330311916822182" fill="#FF0000" r="5"/>
<circle cx="166.66666666666666" cy="-0.011330311916822182" fill="#FF0000" r="5"/>
<circle cx="268.51851851851853" cy="-0.011330311916822182" fill="#FF0000" r="5"/>
<circle cx="208.33333333333334" cy="-0.011330311916822182" fill="#FF0000" r="5"/>
<circle cx="236.11111111111111" cy="-0.011330311916822182" fill="#FF0000" r="5"/>
<circle cx="111.11111111111111" cy="-0.011330311916822182" fill="#FF0000" r="5"/>
<circle cx="185.1851851851852" cy="-0.011330311916822182" fill="#FF0000" r="5"/>
<circle cx="148.14814814814815" cy="-0.011330311916822182" fill="#FF0000" r="5"/>
<circle cx="-13.88888888888889" cy="-0.011330311916822182" fill="#FF0000" r="5"/>
<circle cx="125" cy="-0.011330311916822182" fill="#FF0000" r="5"/>
<circle cx="162.03703703703704" cy="-0.011330311916822182" fill="#FF0000" r="5"/>
<circle cx="175.92592592592592" cy="-0.011330311916822182" fill="#FF0000" r="5"/>
<circle cx="180.55555555555554" cy="-0.011330311916822182" fill="#FF0000" r="5"/>
<circle cx="254.62962962962962" cy="-0.011330311916822182" fill="#FF0000" r="5"/>
<circle cx="199.07407407407408" cy="-0.011330311916822182" fill="#FF0000" r="5"/>
<circle cx="203.7037037037037" cy="-0.011330311916822182" fill="#FF0000" r="5"/>
<circle cx="101.85185185185185" cy="-0.011330311916822182" fill="#FF0000" r="5"/>
<circle cx="222.22222222222223" cy="-0.011330311916822182" fill="#FF0000" r="5"/>
<circle cx="87.96296296296296" cy="-0.011330311916822182" fill="#FF0000" r="5"/>
<circle cx="152.77777777777777" cy="-0.011330311916822182" fill="#FF0000" r="5"/>
<circle cx="189.8148148148148" cy="-0.011330311916822182" fill="#FF0000" r="5"/>
<circle cx="138.88888888888889" cy="-0.011330311916822182" fill="#FF0000" r="5"/>
<circle cx="273.14814814814815" cy="-0.011330311916822182" fill="#FF0000" r="5"/>
<circle cx="245.37037037037038" cy="-0.011330311916822182" fill="#FF0000" r="5"/>
<circle cx="277.77777777777777" cy="-0.011330311916822182" fill="#FF0000" r="5"/>
<circle cx="282.4074074074074" cy="-0.011330311916822182" fill="#FF0000" r="5"/>
<circle cx="129.62962962962962" cy="-0.011330311916822182" fill="#FF0000" r="5"/>
<circle cx="27.77777777777778" cy="-0.011330311916822182" fill="#FF0000" r="5"/>
<circle cx="134.25925925925927" cy="-0.011330311916822182" fill="#FF0000" r="5"/>
<circle cx="231.4814814814815" cy="-0.011330311916822182" fill="#FF0000" r="5"/>
<circle cx="69.44444444444444" cy="-0.011330311916822182" fill="#FF0000" r="5"/>
<circle cx="226.85185185185185" cy="-0.011330311916822182" fill="#FF0000" r="5"/>
<circle cx="212.96296296296296" cy="-0.011330311916822182" fill="#FF0000" r="5"/>
<circle cx="106.48148148148148" cy="-0.011330311916822182" fill="#FF0000" r="5"/>
<circle cx="259.25925925925924" cy="-0.011330311916822182" fill="#FF0000" r="5"/>
<circle cx="120.37037037037037" cy="-0.011330311916822182" fill="#FF0000" r="5"/>
<circle cx="78.70370370370371" cy="-0.011330311916822182" fill="#FF0000" r="5"/>
<circle cx="194.44444444444446" cy="-0.011330311916822182" fill="#FF0000" r="5"/>
<circle cx="115.74074074074075" cy="-0.011330311916822182" fill="#FF0000" r="5"/>
</g>
<g>
<circle cx="421.2962962962963" cy="-3.3990935750466544" fill="#00FF00" r="5"/>
<circle cx="416.6666666666667" cy="-1.880831778192482" fill="#00FF00" r="5"/>
<circle cx="425.9259259259259" cy="-5.631165022660624" fill="#00FF00" r="5"/>
<circle cx="444.44444444444446" cy="-6.832178085843775" fill="#00FF00" r="5"/>
<circle cx="453.7037037037037" cy="-3.7390029325513194" fill="#00FF00" r="5"/>
<circle cx="486.1111111111111" cy="-0.13596374300186617" fill="#00FF00" r="5"/>
<circle cx="402.77777777777777" cy="-0.03399093575046654" fill="#00FF00" r="5"/>
<circle cx="449.0740740740741" cy="-4.894694748067182" fill="#00FF00" r="5"/>
<circle cx="467.5925925925926" cy="-0.9970674486803519" fill="#00FF00" r="5"/>
<circle cx="430.55555555555554" cy="-7.1947480671820845" fill="#00FF00" r="5"/>
<circle cx="458.3333333333333" cy="-2.5266595574513464" fill="#00FF00" r="5"/>
<circle cx="495.3703703703704" cy="-0.0566515595841109" fill="#00FF00" r="5"/>
<circle cx="481.48148148148147" cy="-0.2266062383364436" fill="#00FF00" r="5"/>
<circle cx="490.74074074074076" cy="-0.022660623833644363" fill="#00FF00" r="5"/>
<circle cx="462.962962962963" cy="-1.7901892828579045" fill="#00FF00" r="5"/>
<circle cx="472.22222222222223" cy="-0.6458277792588643" fill="#00FF00" r="5"/>
<circle cx="476.85185185185185" cy="-0.4532124766728872" fill="#00FF00" r="5"/>
<circle cx="398.14814814814815" cy="-0.011330311916822182" fill="#00FF00" r="5"/>
<circle cx="407.4074074074074" cy="-0.16995467875233272" fill="#00FF00" r="5"/>
<circle cx="412.037037037037" cy="-0.7024793388429752" fill="#00FF00" r="5"/>
<circle cx="500" cy="-0.022660623833644363" fill="#00FF00" r="5"/>
<circle cx="439.81481481481484" cy="-7.500666488936283" fill="#00FF00" r="5"/>
<circle cx="435.18518518518516" cy="-7.783924286856839" fill="#00FF00" r="5"/>
</g>
<g>
<g>
<line stroke="black" stroke-width="1" x1="0" x2="0" y1="0" y2="10"/>
<line stroke="black" stroke-width="1" x1="92.5925925925926" x2="92.5925925925926" y1="0" y2="10"/>
<line stroke="black" stroke-width="1" x1="185.1851851851852" x2="185.1851851851852" y1="0" y2="10"/>
<line stroke="black" stroke-width="1" x1="277.77777777777777" x2="277.77777777777777" y1="0" y2="10"/>
<line stroke="black" stroke-width="1" x1="370.3703703703704" x2="370.3703703703704" y1="0" y2="10"/>
<line stroke="black" stroke-width="1" x1="462.962962962963" x2="462.962962962963" y1="0" y2="10"/>
</g>
<line stroke="black" stroke-width="1" x1="0" x2="500" y1="0" y2="0"/>
<g>
<text font-size="12" text-anchor="middle" x="0" y="20">
0
</text>
<text font-size="12" text-anchor="middle" x="92.5925925925926" y="20">
20
</text>
<text font-size="12" text-anchor="middle" x="185.1851851851852" y="20">
40
</text>
<text font-size="12" text-anchor="middle" x="277.77777777777777" y="20">
60
</text>
<text font-size="12" text-anchor="middle" x="370.3703703703704" y="20">
80
</text>
<text font-size="12" text-anchor="middle" x="462.962962962963" y="20">
100
</text>
</g>
<text font-size="12" text-anchor="middle" x="250" y="30">
Hamming Weight Reduction
</text>
</g>
<g>
<g>
<line stroke="black" stroke-width="1" x1="0" x2="-10" y1="0" y2="0"/>
<line stroke="black" stroke-width="1" x1="0" x2="-10" y1="-113.30311916822181" y2="-113.30311916822181"/>
<line stroke="black" stroke-width="1" x1="0" x2="-10" y1="-226.60623833644362" y2="-226.60623833644362"/>
<line stroke="black" stroke-width="1" x1="0" x2="-10" y1="-339.9093575046654" y2="-339.9093575046654"/>
</g>
<line stroke="black" stroke-0="1" x1="0" x2="0" y1="0" y2="-340"/>
<g>
<text dominant-baseline="middle" font-size="12" text-anchor="end" x="-15" y="0">
0
</text>
<text dominant-baseline="middle" font-size="12" text-anchor="end" x="-15" y="-113.30311916822181">
10000
</text>
<text dominant-baseline="middle" font-size="12" text-anchor="end" x="-15" y="-226.60623833644362">
20000
</text>
<text dominant-baseline="middle" font-size="12" text-anchor="end" x="-15" y="-339.9093575046654">
30000
</text>
</g>
<text font-size="12" text-anchor="middle" transform="rotate(-90 -30 -170)" x="-30" y="-170">
Frequency
</text>
</g>
</g>
</svg>