<svg viewBox="0 0 600 400" xmlns="http://www.w3.org/2000/svg">
<g transform="translate(50, 360)">
<g>
<rect fill="#222222" height="10" width="10" x="68.91304347826087" y="-10.846352962928723"/>
<rect fill="#222222" height="10" width="10" x="112.3913043478261" y="-5.125728020708145"/>
<rect fill="#222222" height="10" width="10" x="108.04347826086956" y="-5.251456041416289"/>
<rect fill="#222222" height="10" width="10" x="129.7826086956522" y="-5.125728020708145"/>
<rect fill="#222222" height="10" width="10" x="99.34782608695652" y="-6.005824165665157"/>
<rect fill="#222222" height="10" width="10" x="147.17391304347825" y="-5.031432005177036"/>
<rect fill="#222222" height="10" width="10" x="125.43478260869566" y="-5.0628640103540725"/>
<rect fill="#222222" height="10" width="10" x="77.6086956521739" y="-8.111768512526579"/>
<rect fill="#222222" height="10" width="10" x="116.73913043478261" y="-5.188592031062217"/>
<rect fill="#222222" height="10" width="10" x="8.043478260869565" y="-6.005824165665157"/>
<rect fill="#222222" height="10" width="10" x="103.69565217391305" y="-5.377184062124433"/>
<rect fill="#222222" height="10" width="10" x="81.95652173913044" y="-7.263104372746603"/>
<rect fill="#222222" height="10" width="10" x="95" y="-6.1001201811962655"/>
<rect fill="#222222" height="10" width="10" x="55.869565217391305" y="-16.284089858555976"/>
<rect fill="#222222" height="10" width="10" x="-5" y="-5.0628640103540725"/>
<rect fill="#222222" height="10" width="10" x="60.21739130434783" y="-14.681057594527132"/>
<rect fill="#222222" height="10" width="10" x="90.65217391304348" y="-5.911528150134048"/>
<rect fill="#222222" height="10" width="10" x="16.73913043478261" y="-9.023296662660627"/>
<rect fill="#222222" height="10" width="10" x="25.434782608695652" y="-13.989553480632338"/>
<rect fill="#222222" height="10" width="10" x="42.82608695652174" y="-19.804474438384027"/>
<rect fill="#222222" height="10" width="10" x="47.17391304347826" y="-20.150226495331424"/>
<rect fill="#222222" height="10" width="10" x="38.47826086956522" y="-21.690394749006195"/>
<rect fill="#222222" height="10" width="10" x="-0.6521739130434785" y="-5.15716002588518"/>
<rect fill="#222222" height="10" width="10" x="121.08695652173913" y="-5.125728020708145"/>
<rect fill="#222222" height="10" width="10" x="73.26086956521739" y="-9.74623278173246"/>
<rect fill="#222222" height="10" width="10" x="142.82608695652175" y="-5.031432005177036"/>
<rect fill="#222222" height="10" width="10" x="51.52173913043478" y="-18.610058241656652"/>
<rect fill="#222222" height="10" width="10" x="3.695652173913043" y="-5.314320051770362"/>
<rect fill="#222222" height="10" width="10" x="134.1304347826087" y="-5.031432005177036"/>
<rect fill="#222222" height="10" width="10" x="86.30434782608695" y="-6.3201442174355185"/>
<rect fill="#222222" height="10" width="10" x="21.08695652173913" y="-11.254969030230193"/>
<rect fill="#222222" height="10" width="10" x="64.56521739130434" y="-11.412129056115374"/>
<rect fill="#222222" height="10" width="10" x="29.782608695652172" y="-16.661273920680408"/>
<rect fill="#222222" height="10" width="10" x="12.391304347826086" y="-6.980216326153277"/>
<rect fill="#222222" height="10" width="10" x="34.130434782608695" y="-18.421466210594435"/>
</g>
<g>
<circle cx="500" cy="-0.03143200517703615" fill="#0000FF" r="5"/>
<circle cx="373.9130434782609" cy="-319.88351668669685" fill="#0000FF" r="5"/>
<circle cx="208.69565217391303" cy="-0.1885920310622169" fill="#0000FF" r="5"/>
<circle cx="273.9130434782609" cy="-3.0174724969954703" fill="#0000FF" r="5"/>
<circle cx="252.17391304347825" cy="-1.068688176019229" fill="#0000FF" r="5"/>
<circle cx="430.4347826086956" cy="-67.10733105297217" fill="#0000FF" r="5"/>
<circle cx="365.2173913043478" cy="-271.16390866229085" fill="#0000FF" r="5"/>
<circle cx="334.7826086956522" cy="-78.9571970047148" fill="#0000FF" r="5"/>
<circle cx="456.5217391304348" cy="-5.500600905981326" fill="#0000FF" r="5"/>
<circle cx="282.60869565217394" cy="-3.363224553942868" fill="#0000FF" r="5"/>
<circle cx="178.2608695652174" cy="-0.03143200517703615" fill="#0000FF" r="5"/>
<circle cx="173.91304347826087" cy="-0.03143200517703615" fill="#0000FF" r="5"/>
<circle cx="478.2608695652174" cy="-0.3771840621244338" fill="#0000FF" r="5"/>
<circle cx="278.2608695652174" cy="-3.206064528057687" fill="#0000FF" r="5"/>
<circle cx="382.60869565217394" cy="-337.5483035961912" fill="#0000FF" r="5"/>
<circle cx="417.39130434782606" cy="-151.43940094296016" fill="#0000FF" r="5"/>
<circle cx="204.34782608695653" cy="-0.15716002588518074" fill="#0000FF" r="5"/>
<circle cx="391.30434782608694" cy="-327.71008597577884" fill="#0000FF" r="5"/>
<circle cx="286.95652173913044" cy="-3.9918646574835908" fill="#0000FF" r="5"/>
<circle cx="156.52173913043478" cy="-0.03143200517703615" fill="#0000FF" r="5"/>
<circle cx="469.5652173913044" cy="-1.0372561708421928" fill="#0000FF" r="5"/>
<circle cx="426.0869565217391" cy="-92.66155126190256" fill="#0000FF" r="5"/>
<circle cx="369.5652173913044" cy="-300.898585559767" fill="#0000FF" r="5"/>
<circle cx="291.30434782608694" cy="-6.003512988813904" fill="#0000FF" r="5"/>
<circle cx="221.7391304347826" cy="-0.22002403623925304" fill="#0000FF" r="5"/>
<circle cx="352.17391304347825" cy="-179.8225016178238" fill="#0000FF" r="5"/>
<circle cx="213.04347826086956" cy="-0.28288804659332534" fill="#0000FF" r="5"/>
<circle cx="400" cy="-281.59933438106685" fill="#0000FF" r="5"/>
<circle cx="186.95652173913044" cy="-0.09429601553110845" fill="#0000FF" r="5"/>
<circle cx="230.43478260869566" cy="-0.40861606730146993" fill="#0000FF" r="5"/>
<circle cx="486.95652173913044" cy="-0.03143200517703615" fill="#0000FF" r="5"/>
<circle cx="134.7826086956522" cy="-0.03143200517703615" fill="#0000FF" r="5"/>
<circle cx="269.5652173913044" cy="-2.137376352038458" fill="#0000FF" r="5"/>
<circle cx="191.30434782608697" cy="-0.09429601553110845" fill="#0000FF" r="5"/>
<circle cx="386.95652173913044" cy="-340" fill="#0000FF" r="5"/>
<circle cx="226.08695652173913" cy="-0.40861606730146993" fill="#0000FF" r="5"/>
<circle cx="447.82608695652175" cy="-13.86151428307294" fill="#0000FF" r="5"/>
<circle cx="239.1304347826087" cy="-0.6915041138947953" fill="#0000FF" r="5"/>
<circle cx="356.5217391304348" cy="-213.23472312101322" fill="#0000FF" r="5"/>
<circle cx="265.2173913043478" cy="-1.697328279559952" fill="#0000FF" r="5"/>
<circle cx="343.4782608695652" cy="-125.225108625312" fill="#0000FF" r="5"/>
<circle cx="247.82608695652175" cy="-0.7229361190718314" fill="#0000FF" r="5"/>
<circle cx="256.5217391304348" cy="-0.9429601553110845" fill="#0000FF" r="5"/>
<circle cx="452.17391304347825" cy="-9.712489599704169" fill="#0000FF" r="5"/>
<circle cx="321.7391304347826" cy="-38.6927983729315" fill="#0000FF" r="5"/>
<circle cx="443.4782608695652" cy="-21.090875473791254" fill="#0000FF" r="5"/>
<circle cx="413.04347826086956" cy="-184.38014236849403" fill="#0000FF" r="5"/>
<circle cx="260.8695652173913" cy="-1.3830082277895905" fill="#0000FF" r="5"/>
<circle cx="421.7391304347826" cy="-118.53009152260331" fill="#0000FF" r="5"/>
<circle cx="195.65217391304347" cy="-0.09429601553110845" fill="#0000FF" r="5"/>
<circle cx="460.8695652173913" cy="-2.734584450402145" fill="#0000FF" r="5"/>
<circle cx="243.47826086956522" cy="-1.0372561708421928" fill="#0000FF" r="5"/>
<circle cx="313.04347826086956" cy="-21.71951557733198" fill="#0000FF" r="5"/>
<circle cx="330.4347826086956" cy="-66.51012295460849" fill="#0000FF" r="5"/>
<circle cx="326.0869565217391" cy="-48.87676805029121" fill="#0000FF" r="5"/>
<circle cx="300" cy="-9.55532957381899" fill="#0000FF" r="5"/>
<circle cx="439.1304347826087" cy="-34.323749653323475" fill="#0000FF" r="5"/>
<circle cx="234.7826086956522" cy="-0.40861606730146993" fill="#0000FF" r="5"/>
<circle cx="347.82608695652175" cy="-151.3765369326061" fill="#0000FF" r="5"/>
<circle cx="473.9130434782609" cy="-0.5343440880096145" fill="#0000FF" r="5"/>
<circle cx="339.1304347826087" cy="-104.6057132291763" fill="#0000FF" r="5"/>
<circle cx="404.3478260869565" cy="-251.77036146805955" fill="#0000FF" r="5"/>
<circle cx="465.2173913043478" cy="-1.4773042433206989" fill="#0000FF" r="5"/>
<circle cx="408.69565217391306" cy="-218.04381991309975" fill="#0000FF" r="5"/>
<circle cx="395.6521739130435" cy="-307.34214662105944" fill="#0000FF" r="5"/>
<circle cx="304.3478260869565" cy="-12.352778034575206" fill="#0000FF" r="5"/>
<circle cx="434.7826086956522" cy="-49.15965609688453" fill="#0000FF" r="5"/>
<circle cx="308.69565217391306" cy="-15.118794490154386" fill="#0000FF" r="5"/>
<circle cx="295.6521739130435" cy="-7.323657206249422" fill="#0000FF" r="5"/>
<circle cx="378.2608695652174" cy="-330.63326245724323" fill="#0000FF" r="5"/>
<circle cx="217.3913043478261" cy="-0.1257280207081446" fill="#0000FF" r="5"/>
<circle cx="360.8695652173913" cy="-248.15568087270037" fill="#0000FF" r="5"/>
<circle cx="317.39130434782606" cy="-30.551909032079134" fill="#0000FF" r="5"/>
<circle cx="482.60869565217394" cy="-0.09429601553110845" fill="#0000FF" r="5"/>
<circle cx="200" cy="-0.0628640103540723" fill="#0000FF" r="5"/>
</g>
<g>
<circle cx="269.5652173913044" cy="-0.03143200517703615" fill="#FF0000" r="5"/>
<circle cx="286.95652173913044" cy="-0.03143200517703615" fill="#FF0000" r="5"/>
<circle cx="282.60869565217394" cy="-0.03143200517703615" fill="#FF0000" r="5"/>
<circle cx="378.2608695652174" cy="-0.03143200517703615" fill="#FF0000" r="5"/>
<circle cx="208.69565217391303" cy="-0.03143200517703615" fill="#FF0000" r="5"/>
<circle cx="256.5217391304348" cy="-0.03143200517703615" fill="#FF0000" r="5"/>
<circle cx="343.4782608695652" cy="-0.03143200517703615" fill="#FF0000" r="5"/>
<circle cx="252.17391304347825" cy="-0.03143200517703615" fill="#FF0000" r="5"/>
<circle cx="373.9130434782609" cy="-0.03143200517703615" fill="#FF0000" r="5"/>
<circle cx="360.8695652173913" cy="-0.03143200517703615" fill="#FF0000" r="5"/>
<circle cx="226.08695652173913" cy="-0.03143200517703615" fill="#FF0000" r="5"/>
<circle cx="247.82608695652175" cy="-0.03143200517703615" fill="#FF0000" r="5"/>
<circle cx="156.52173913043478" cy="-0.03143200517703615" fill="#FF0000" r="5"/>
<circle cx="200" cy="-0.03143200517703615" fill="#FF0000" r="5"/>
<circle cx="291.30434782608694" cy="-0.03143200517703615" fill="#FF0000" r="5"/>
<circle cx="347.82608695652175" cy="-0.03143200517703615" fill="#FF0000" r="5"/>
<circle cx="317.39130434782606" cy="-0.03143200517703615" fill="#FF0000" r="5"/>
<circle cx="204.34782608695653" cy="-0.03143200517703615" fill="#FF0000" r="5"/>
<circle cx="356.5217391304348" cy="-0.03143200517703615" fill="#FF0000" r="5"/>
<circle cx="304.3478260869565" cy="-0.03143200517703615" fill="#FF0000" r="5"/>
<circle cx="260.8695652173913" cy="-0.03143200517703615" fill="#FF0000" r="5"/>
<circle cx="300" cy="-0.03143200517703615" fill="#FF0000" r="5"/>
<circle cx="134.7826086956522" cy="-0.03143200517703615" fill="#FF0000" r="5"/>
<circle cx="213.04347826086956" cy="-0.03143200517703615" fill="#FF0000" r="5"/>
<circle cx="195.65217391304347" cy="-0.03143200517703615" fill="#FF0000" r="5"/>
<circle cx="265.2173913043478" cy="-0.03143200517703615" fill="#FF0000" r="5"/>
<circle cx="239.1304347826087" cy="-0.03143200517703615" fill="#FF0000" r="5"/>
<circle cx="352.17391304347825" cy="-0.03143200517703615" fill="#FF0000" r="5"/>
<circle cx="308.69565217391306" cy="-0.03143200517703615" fill="#FF0000" r="5"/>
<circle cx="321.7391304347826" cy="-0.03143200517703615" fill="#FF0000" r="5"/>
<circle cx="339.1304347826087" cy="-0.03143200517703615" fill="#FF0000" r="5"/>
<circle cx="234.7826086956522" cy="-0.03143200517703615" fill="#FF0000" r="5"/>
<circle cx="186.95652173913044" cy="-0.03143200517703615" fill="#FF0000" r="5"/>
<circle cx="330.4347826086956" cy="-0.03143200517703615" fill="#FF0000" r="5"/>
<circle cx="334.7826086956522" cy="-0.03143200517703615" fill="#FF0000" r="5"/>
<circle cx="243.47826086956522" cy="-0.03143200517703615" fill="#FF0000" r="5"/>
<circle cx="326.0869565217391" cy="-0.03143200517703615" fill="#FF0000" r="5"/>
<circle cx="178.2608695652174" cy="-0.03143200517703615" fill="#FF0000" r="5"/>
<circle cx="191.30434782608697" cy="-0.03143200517703615" fill="#FF0000" r="5"/>
<circle cx="278.2608695652174" cy="-0.03143200517703615" fill="#FF0000" r="5"/>
<circle cx="217.3913043478261" cy="-0.03143200517703615" fill="#FF0000" r="5"/>
<circle cx="369.5652173913044" cy="-0.03143200517703615" fill="#FF0000" r="5"/>
<circle cx="365.2173913043478" cy="-0.03143200517703615" fill="#FF0000" r="5"/>
<circle cx="221.7391304347826" cy="-0.03143200517703615" fill="#FF0000" r="5"/>
<circle cx="173.91304347826087" cy="-0.03143200517703615" fill="#FF0000" r="5"/>
<circle cx="230.43478260869566" cy="-0.03143200517703615" fill="#FF0000" r="5"/>
<circle cx="313.04347826086956" cy="-0.03143200517703615" fill="#FF0000" r="5"/>
<circle cx="273.9130434782609" cy="-0.03143200517703615" fill="#FF0000" r="5"/>
<circle cx="295.6521739130435" cy="-0.03143200517703615" fill="#FF0000" r="5"/>
</g>
<g>
<circle cx="408.69565217391306" cy="-1.9802163261532773" fill="#00FF00" r="5"/>
<circle cx="486.95652173913044" cy="-0.03143200517703615" fill="#00FF00" r="5"/>
<circle cx="473.9130434782609" cy="-0.5343440880096145" fill="#00FF00" r="5"/>
<circle cx="417.39130434782606" cy="-8.580937413330869" fill="#00FF00" r="5"/>
<circle cx="434.7826086956522" cy="-21.53092354626976" fill="#00FF00" r="5"/>
<circle cx="426.0869565217391" cy="-19.016363132106868" fill="#00FF00" r="5"/>
<circle cx="413.04347826086956" cy="-4.3061847092539525" fill="#00FF00" r="5"/>
<circle cx="391.30434782608694" cy="-0.03143200517703615" fill="#00FF00" r="5"/>
<circle cx="443.4782608695652" cy="-14.804474438384025" fill="#00FF00" r="5"/>
<circle cx="439.1304347826087" cy="-20.682259406489784" fill="#00FF00" r="5"/>
<circle cx="500" cy="-0.03143200517703615" fill="#00FF00" r="5"/>
<circle cx="469.5652173913044" cy="-1.0372561708421928" fill="#00FF00" r="5"/>
<circle cx="452.17391304347825" cy="-8.675233428861976" fill="#00FF00" r="5"/>
<circle cx="460.8695652173913" cy="-2.6088564296940002" fill="#00FF00" r="5"/>
<circle cx="395.6521739130435" cy="-0.0628640103540723" fill="#00FF00" r="5"/>
<circle cx="421.7391304347826" cy="-13.924378293427013" fill="#00FF00" r="5"/>
<circle cx="447.82608695652175" cy="-10.93833780160858" fill="#00FF00" r="5"/>
<circle cx="465.2173913043478" cy="-1.288712212258482" fill="#00FF00" r="5"/>
<circle cx="482.60869565217394" cy="-0.09429601553110845" fill="#00FF00" r="5"/>
<circle cx="478.2608695652174" cy="-0.3771840621244338" fill="#00FF00" r="5"/>
<circle cx="404.3478260869565" cy="-0.7858001294259037" fill="#00FF00" r="5"/>
<circle cx="400" cy="-0.1885920310622169" fill="#00FF00" r="5"/>
<circle cx="456.5217391304348" cy="-5.029120828325784" fill="#00FF00" r="5"/>
<circle cx="430.4347826086956" cy="-20.61939539613571" fill="#00FF00" r="5"/>
</g>
<g>
<g>
<line stroke="black" stroke-width="1" x1="0" x2="0" y1="0" y2="10"/>
<line stroke="black" stroke-width="1" x1="86.95652173913044" x2="86.95652173913044" y1="0" y2="10"/>
<line stroke="black" stroke-width="1" x1="173.91304347826087" x2="173.91304347826087" y1="0" y2="10"/>
<line stroke="black" stroke-width="1" x1="260.8695652173913" x2="260.8695652173913" y1="0" y2="10"/>
<line stroke="black" stroke-width="1" x1="347.82608695652175" x2="347.82608695652175" y1="0" y2="10"/>
<line stroke="black" stroke-width="1" x1="434.7826086956522" x2="434.7826086956522" y1="0" y2="10"/>
</g>
<line stroke="black" stroke-width="1" x1="0" x2="500" y1="0" y2="0"/>
<g>
<text font-size="12" text-anchor="middle" x="0" y="20">
0
</text>
<text font-size="12" text-anchor="middle" x="86.95652173913044" y="20">
20
</text>
<text font-size="12" text-anchor="middle" x="173.91304347826087" y="20">
40
</text>
<text font-size="12" text-anchor="middle" x="260.8695652173913" y="20">
60
</text>
<text font-size="12" text-anchor="middle" x="347.82608695652175" y="20">
80
</text>
<text font-size="12" text-anchor="middle" x="434.7826086956522" y="20">
100
</text>
</g>
<text font-size="12" text-anchor="middle" x="250" y="30">
Hamming Weight Reduction
</text>
</g>
<g>
<g>
<line stroke="black" stroke-width="1" x1="0" x2="-10" y1="0" y2="0"/>
<line stroke="black" stroke-width="1" x1="0" x2="-10" y1="-62.86401035407229" y2="-62.86401035407229"/>
<line stroke="black" stroke-width="1" x1="0" x2="-10" y1="-125.72802070814458" y2="-125.72802070814458"/>
<line stroke="black" stroke-width="1" x1="0" x2="-10" y1="-188.59203106221688" y2="-188.59203106221688"/>
<line stroke="black" stroke-width="1" x1="0" x2="-10" y1="-251.45604141628917" y2="-251.45604141628917"/>
<line stroke="black" stroke-width="1" x1="0" x2="-10" y1="-314.3200517703615" y2="-314.3200517703615"/>
</g>
<line stroke="black" stroke-0="1" x1="0" x2="0" y1="0" y2="-340"/>
<g>
<text dominant-baseline="middle" font-size="12" text-anchor="end" x="-15" y="0">
0
</text>
<text dominant-baseline="middle" font-size="12" text-anchor="end" x="-15" y="-62.86401035407229">
2000
</text>
<text dominant-baseline="middle" font-size="12" text-anchor="end" x="-15" y="-125.72802070814458">
4000
</text>
<text dominant-baseline="middle" font-size="12" text-anchor="end" x="-15" y="-188.59203106221688">
6000
</text>
<text dominant-baseline="middle" font-size="12" text-anchor="end" x="-15" y="-251.45604141628917">
8000
</text>
<text dominant-baseline="middle" font-size="12" text-anchor="end" x="-15" y="-314.3200517703615">
10000
</text>
</g>
<text font-size="12" text-anchor="middle" transform="rotate(-90 -30 -170)" x="-30" y="-170">
Frequency
</text>
</g>
</g>
</svg>